<?xml version="1.0" ?><svg viewBox="0 0 48 48" xmlns="http://www.w3.org/2000/svg" xmlns:xlink="http://www.w3.org/1999/xlink"><defs><style>.cls-1{fill:#bcbcbc;}.cls-2{fill:url(#linear-gradient);}.cls-3{fill:url(#linear-gradient-2);}.cls-4{fill:url(#linear-gradient-3);}.cls-5{fill:#b3b3b3;}.cls-6{fill:#fdc42e;}.cls-7{fill:url(#linear-gradient-4);}.cls-8{fill:url(#linear-gradient-5);}.cls-9{fill:url(#linear-gradient-6);}.cls-10{fill:url(#linear-gradient-7);}</style><linearGradient gradientUnits="userSpaceOnUse" id="linear-gradient" x1="24" x2="24" y1="40.6" y2="7.52"><stop offset="0" stop-color="#f0f0f0"/><stop offset="0.45" stop-color="#eee"/><stop offset="0.62" stop-color="#e7e7e7"/><stop offset="0.73" stop-color="#dcdcdc"/><stop offset="0.83" stop-color="#cbcbcb"/><stop offset="0.91" stop-color="#b5b5b5"/><stop offset="0.98" stop-color="#9a9a9a"/><stop offset="1" stop-color="#8f8f8f"/></linearGradient><linearGradient gradientUnits="userSpaceOnUse" id="linear-gradient-2" x1="24" x2="24" y1="8.96" y2="16.22"><stop offset="0.18" stop-color="#ffe79c"/><stop offset="1" stop-color="#de9908"/></linearGradient><linearGradient gradientUnits="userSpaceOnUse" id="linear-gradient-3" x1="24" x2="24" y1="10.02" y2="18.18"><stop offset="0.18" stop-color="#ffc308"/><stop offset="1" stop-color="#de9908"/></linearGradient><linearGradient gradientUnits="userSpaceOnUse" id="linear-gradient-4" x1="11.5" x2="15.5" y1="13" y2="13"><stop offset="0.18" stop-color="#a76b00"/><stop offset="1" stop-color="#864100"/></linearGradient><linearGradient id="linear-gradient-5" x1="31.5" x2="35.5" xlink:href="#linear-gradient-4" y1="13" y2="13"/><linearGradient gradientUnits="userSpaceOnUse" id="linear-gradient-6" x1="12" x2="15" y1="9" y2="9"><stop offset="0" stop-color="#bfbfbf"/><stop offset="0.53" stop-color="#f8f8f8"/><stop offset="1" stop-color="#bfbfbf"/></linearGradient><linearGradient id="linear-gradient-7" x1="32" x2="35" xlink:href="#linear-gradient-6" y1="9" y2="9"/></defs><title/><g id="icons"><g data-name="Layer 3" id="Layer_3"><path class="cls-1" d="M8.83,9.5H38.17A4.83,4.83,0,0,1,43,14.33V38.67a4.83,4.83,0,0,1-4.83,4.83H9.83A4.83,4.83,0,0,1,5,38.67V13.33A3.83,3.83,0,0,1,8.83,9.5Z"/><rect class="cls-2" height="32" rx="4.83" ry="4.83" width="38" x="5" y="9.5"/><path class="cls-3" d="M38,8.5H10a5,5,0,0,0-5,5v3H43v-3A5,5,0,0,0,38,8.5Z"/><path class="cls-4" d="M38,9.5H10c-2.76,0-5,2-5,4.37V18.5H43V13.87C43,11.46,40.76,9.5,38,9.5Z"/><rect class="cls-5" height="2" width="38" x="5" y="18.5"/><path class="cls-1" d="M17,22.5v5H10v12H33v-5h7v-12Zm0,15H12v-3h5Zm0-5H12v-3h5Zm7,5H19v-3h5Zm0-5H19v-3h5Zm0-5H19v-3h5Zm7,10H26v-3h5Zm0-5H26v-3h5Zm0-5H26v-3h5Zm7,5H33v-3h5Zm0-5H33v-3h5Z"/><circle class="cls-6" cx="13.5" cy="13" r="2.5"/><circle class="cls-7" cx="13.5" cy="13" r="2"/><circle class="cls-6" cx="33.5" cy="13" r="2.5"/><circle class="cls-8" cx="33.5" cy="13" r="2"/><rect class="cls-9" height="9" rx="1.5" ry="1.5" width="3" x="12" y="4.5"/><rect class="cls-10" height="9" rx="1.5" ry="1.5" width="3" x="32" y="4.5"/></g></g></svg>