<?xml version="1.0" ?><svg viewBox="0 0 48 48" xmlns="http://www.w3.org/2000/svg" xmlns:xlink="http://www.w3.org/1999/xlink"><defs><style>.cls-1{fill:url(#linear-gradient);}.cls-2{fill:url(#linear-gradient-2);}.cls-3{fill:url(#linear-gradient-3);}.cls-4{fill:url(#linear-gradient-4);}.cls-5{fill:url(#linear-gradient-5);}.cls-6{fill:url(#linear-gradient-6);}.cls-7{fill:url(#linear-gradient-7);}.cls-8{fill:url(#linear-gradient-8);}.cls-9{fill:url(#linear-gradient-9);}.cls-10{fill:url(#linear-gradient-10);}.cls-11{fill:url(#linear-gradient-11);}.cls-12{fill:url(#linear-gradient-12);}.cls-13{fill:url(#linear-gradient-13);}.cls-14{fill:url(#linear-gradient-14);}.cls-15{fill:url(#linear-gradient-15);}.cls-16{fill:url(#linear-gradient-16);}.cls-17{fill:#fff;}</style><linearGradient gradientUnits="userSpaceOnUse" id="linear-gradient" x1="23.85" x2="23.85" y1="22.1" y2="40.01"><stop offset="0.18" stop-color="#ffc308"/><stop offset="1" stop-color="#de9908"/></linearGradient><linearGradient gradientUnits="userSpaceOnUse" id="linear-gradient-2" x1="28.24" x2="39.87" y1="20.93" y2="20.93"><stop offset="0.18" stop-color="#e5ad00"/><stop offset="1" stop-color="#c68600"/></linearGradient><linearGradient id="linear-gradient-3" x1="23.85" x2="23.85" xlink:href="#linear-gradient-2" y1="15.29" y2="22.38"/><linearGradient id="linear-gradient-4" x1="23.77" x2="23.98" xlink:href="#linear-gradient" y1="15.77" y2="23.75"/><linearGradient id="linear-gradient-5" x1="15.35" x2="15.35" xlink:href="#linear-gradient" y1="37.24" y2="32.81"/><linearGradient id="linear-gradient-6" x1="21.35" x2="21.35" xlink:href="#linear-gradient" y1="37.24" y2="32.81"/><linearGradient id="linear-gradient-7" x1="27.35" x2="27.35" xlink:href="#linear-gradient" y1="37.24" y2="32.81"/><linearGradient id="linear-gradient-8" x1="33.35" x2="33.35" xlink:href="#linear-gradient" y1="37.24" y2="32.81"/><linearGradient gradientUnits="userSpaceOnUse" id="linear-gradient-9" x1="15.35" x2="15.35" y1="27.48" y2="36.15"><stop offset="0.18" stop-color="#8f6500"/><stop offset="1" stop-color="#774800"/></linearGradient><linearGradient id="linear-gradient-10" x1="21.35" x2="21.35" xlink:href="#linear-gradient-9" y1="27.48" y2="36.15"/><linearGradient id="linear-gradient-11" x1="27.35" x2="27.35" xlink:href="#linear-gradient-9" y1="27.48" y2="36.15"/><linearGradient id="linear-gradient-12" x1="33.35" x2="33.35" xlink:href="#linear-gradient-9" y1="27.48" y2="36.15"/><linearGradient gradientTransform="translate(-5.59 15.45) rotate(-45)" gradientUnits="userSpaceOnUse" id="linear-gradient-13" x1="14.74" x2="16.87" y1="13.36" y2="15.49"><stop offset="0" stop-color="#4d4d4d"/><stop offset="0.18" stop-color="gray"/><stop offset="1" stop-color="#4d4d4d"/></linearGradient><linearGradient gradientTransform="translate(44.14 47.23) rotate(-135)" id="linear-gradient-14" x1="32.92" x2="30.83" xlink:href="#linear-gradient-13" y1="13.41" y2="15.5"/><linearGradient gradientUnits="userSpaceOnUse" id="linear-gradient-15" x1="35.86" x2="35.86" y1="13.38" y2="22.22"><stop offset="0" stop-color="#00bde8"/><stop offset="1" stop-color="#009dc1"/></linearGradient><linearGradient gradientUnits="userSpaceOnUse" id="linear-gradient-16" x1="35.86" x2="35.86" y1="14.11" y2="21.79"><stop offset="0" stop-color="#00cfff"/><stop offset="1" stop-color="#00afd6"/></linearGradient></defs><title/><g id="icons"><g data-name="Layer 3" id="Layer_3"><path class="cls-1" d="M7.85,21.47h32a0,0,0,0,1,0,0v13a5,5,0,0,1-5,5h-22a5,5,0,0,1-5-5v-13A0,0,0,0,1,7.85,21.47Z"/><path class="cls-2" d="M35.86,13.3a7.63,7.63,0,0,0,0,15.25,7.51,7.51,0,0,0,4-1.15V14.45A7.6,7.6,0,0,0,35.86,13.3Z"/><rect class="cls-3" height="2" width="32" x="7.85" y="21.47"/><rect class="cls-4" height="5" rx="2.5" ry="2.5" width="36" x="5.85" y="16.47"/><rect class="cls-5" height="9" rx="1.5" ry="1.5" width="3" x="13.85" y="27.47"/><rect class="cls-6" height="9" rx="1.5" ry="1.5" width="3" x="19.85" y="27.47"/><rect class="cls-7" height="9" rx="1.5" ry="1.5" width="3" x="25.85" y="27.47"/><rect class="cls-8" height="9" rx="1.5" ry="1.5" width="3" x="31.85" y="27.47"/><rect class="cls-9" height="9" rx="1.5" ry="1.5" width="3" x="13.85" y="26.47"/><rect class="cls-10" height="9" rx="1.5" ry="1.5" width="3" x="19.85" y="26.47"/><rect class="cls-11" height="9" rx="1.5" ry="1.5" width="3" x="25.85" y="26.47"/><rect class="cls-12" height="9" rx="1.5" ry="1.5" width="3" x="31.85" y="26.47"/><rect class="cls-13" height="15.59" rx="1.5" ry="1.5" transform="translate(14.88 -6.97) rotate(45)" width="3" x="14.35" y="6.68"/><rect class="cls-14" height="15.59" rx="1.5" ry="1.5" transform="translate(64.61 2.19) rotate(135)" width="3" x="30.35" y="6.68"/><path class="cls-15" d="M43.49,18.93a7.63,7.63,0,1,1-7.63-7.63A7.63,7.63,0,0,1,43.49,18.93Z"/><path class="cls-16" d="M35.86,25.55a6.63,6.63,0,1,1,6.63-6.62,6.63,6.63,0,0,1-6.63,6.62Z"/><path class="cls-17" d="M40.32,22.2l-1.84-1.84a3.82,3.82,0,1,0-1.18,1.19l1.84,1.84ZM33.59,20a2.33,2.33,0,1,1,3.3,0A2.34,2.34,0,0,1,33.59,20Z"/></g></g></svg>