<?xml version="1.0" ?><svg viewBox="0 0 48 48" xmlns="http://www.w3.org/2000/svg" xmlns:xlink="http://www.w3.org/1999/xlink"><defs><style>.cls-1{fill:url(#linear-gradient);}.cls-2{fill:#a5a4a4;}.cls-3{fill:#333;}.cls-4{fill:#e6e6e6;}.cls-5{fill:gray;}.cls-6{fill:url(#linear-gradient-2);}.cls-7{fill:url(#linear-gradient-3);}.cls-8{fill:#fff;}</style><linearGradient gradientUnits="userSpaceOnUse" id="linear-gradient" x1="22.04" x2="22.04" y1="12.76" y2="39.8"><stop offset="0" stop-color="#e6e6e6"/><stop offset="1" stop-color="#bababa"/></linearGradient><linearGradient gradientUnits="userSpaceOnUse" id="linear-gradient-2" x1="35.54" x2="35.54" y1="11.27" y2="20.1"><stop offset="0" stop-color="#00bde8"/><stop offset="1" stop-color="#009dc1"/></linearGradient><linearGradient gradientUnits="userSpaceOnUse" id="linear-gradient-3" x1="35.54" x2="35.54" y1="12" y2="19.67"><stop offset="0" stop-color="#00cfff"/><stop offset="1" stop-color="#00afd6"/></linearGradient></defs><title/><g id="icons"><g data-name="Layer 3" id="Layer_3"><rect class="cls-1" height="26" rx="5" ry="5" width="35" x="4.54" y="12.81"/><path class="cls-2" d="M35.54,11.19a7.63,7.63,0,1,0,4,14.1V12.34A7.54,7.54,0,0,0,35.54,11.19Z"/><rect class="cls-3" height="4" width="35" x="4.54" y="19.81"/><rect class="cls-4" height="2" width="8" x="8.54" y="32.81"/><rect class="cls-4" height="2" width="6" x="19.54" y="32.81"/><rect class="cls-4" height="2" width="7" x="28.54" y="32.81"/><rect class="cls-5" height="2" width="8" x="8.54" y="31.81"/><rect class="cls-5" height="2" width="6" x="19.54" y="31.81"/><rect class="cls-5" height="2" width="7" x="28.54" y="31.81"/><path class="cls-6" d="M43.17,16.81a7.63,7.63,0,1,1-7.63-7.62A7.64,7.64,0,0,1,43.17,16.81Z"/><path class="cls-7" d="M35.54,23.44a6.63,6.63,0,1,1,6.63-6.63,6.63,6.63,0,0,1-6.63,6.63Z"/><path class="cls-8" d="M38,16.58V14.85a2.25,2.25,0,0,0-2.25-2.25h-.34a2.25,2.25,0,0,0-2.25,2.25v1.73H31.79V21H39.3V16.58Zm-1,0H34.12V14.85a1.25,1.25,0,0,1,1.25-1.25h.34A1.25,1.25,0,0,1,37,14.85Z"/></g></g></svg>