<?xml version="1.0" ?><svg viewBox="0 0 48 48" xmlns="http://www.w3.org/2000/svg" xmlns:xlink="http://www.w3.org/1999/xlink"><defs><style>.cls-1{fill:#ffe996;}.cls-2{fill:#e09d20;}.cls-3{fill:url(#linear-gradient);}</style><linearGradient gradientUnits="userSpaceOnUse" id="linear-gradient" x1="24" x2="24" y1="17.92" y2="37.19"><stop offset="0" stop-color="#fbd855"/><stop offset="1" stop-color="#f6d352"/></linearGradient></defs><title/><g id="icons"><g data-name="Layer 3" id="Layer_3"><path class="cls-1" d="M39,11H23a5,5,0,0,0-5-5H9a5,5,0,0,0-5,5V30a5,5,0,0,0,5,5H39a5,5,0,0,0,5-5V16A5,5,0,0,0,39,11Z"/><path class="cls-2" d="M39,13H23a5,5,0,0,0-5-5H9a5,5,0,0,0-5,5V32a5,5,0,0,0,5,5H39a5,5,0,0,0,5-5V18A5,5,0,0,0,39,13Z"/><rect class="cls-1" height="25" rx="5" ry="5" width="40" x="4" y="17"/><rect class="cls-3" height="23" rx="5" ry="5" width="40" x="4" y="19"/></g></g></svg>