<?xml version="1.0" ?><!DOCTYPE svg  PUBLIC '-//W3C//DTD SVG 1.1//EN'  'http://www.w3.org/Graphics/SVG/1.1/DTD/svg11.dtd'><svg enable-background="new 0 0 512 512" height="512px" id="Presentation" version="1.1" viewBox="0 0 512 512" width="512px" xml:space="preserve" xmlns="http://www.w3.org/2000/svg" xmlns:xlink="http://www.w3.org/1999/xlink"><linearGradient gradientUnits="userSpaceOnUse" id="SVGID_1_" x1="219.0483" x2="219.0483" y1="355.3086" y2="113.3218"><stop offset="0" style="stop-color:#FFFFFF"/><stop offset="0.3279" style="stop-color:#FCFCFC"/><stop offset="0.5302" style="stop-color:#F4F4F4"/><stop offset="0.6984" style="stop-color:#E5E5E5"/><stop offset="0.848" style="stop-color:#D1D1D1"/><stop offset="0.9839" style="stop-color:#B7B7B7"/><stop offset="1" style="stop-color:#B3B3B3"/></linearGradient><rect fill="url(#SVGID_1_)" height="241.987" width="376.201" x="30.947" y="113.321"/><linearGradient gradientUnits="userSpaceOnUse" id="SVGID_2_" x1="-960.9961" x2="401.6442" y1="918.9365" y2="132.2158"><stop offset="0.699" style="stop-color:#00FFFF"/><stop offset="0.7084" style="stop-color:#09FAFC"/><stop offset="0.8182" style="stop-color:#71C4DA"/><stop offset="0.9065" style="stop-color:#BD9DC1"/><stop offset="0.9689" style="stop-color:#ED84B2"/><stop offset="1" style="stop-color:#FF7BAC"/></linearGradient><polygon fill="url(#SVGID_2_)" points="366.066,190.743 366.066,142.792 318.115,142.792 297.758,163.15 331.577,163.14   268.787,225.93 245.959,203.101 189.324,259.736 156.656,227.069 64.958,318.767 79.101,332.909 156.656,255.353 189.324,288.021   245.959,231.385 268.787,254.214 345.719,177.283 345.709,211.101 "/><path d="M500.451,431.879H313.845v-62.531c0-26.878,21.788-48.666,48.667-48.666h89.273  c26.878,0,48.666,21.788,48.666,48.666V431.879z" fill="#3F5EAB"/><circle cx="407.148" cy="244.627" fill="#3F5EAB" r="62.761"/><linearGradient gradientUnits="userSpaceOnUse" id="SVGID_3_" x1="408.3857" x2="428.0454" y1="106.5518" y2="86.8921"><stop offset="0" style="stop-color:#00FFFF"/><stop offset="1" style="stop-color:#FF7BAC"/></linearGradient><path d="M417.547,80.122h-2.392v33.2h2.392c4.971,0,9-4.029,9-9v-15.2  C426.547,84.151,422.518,80.122,417.547,80.122z" fill="url(#SVGID_3_)"/><linearGradient gradientUnits="userSpaceOnUse" id="SVGID_4_" x1="106.1021" x2="317.8658" y1="202.603" y2="-9.1608"><stop offset="0" style="stop-color:#00FFFF"/><stop offset="1" style="stop-color:#FF7BAC"/></linearGradient><path d="M20.548,80.122c-4.971,0-9,4.029-9,9v15.2c0,4.971,4.029,9,9,9h2.392v-33.2h8.007v33.2h376.201v-33.2  H20.548z" fill="url(#SVGID_4_)"/></svg>