<?xml version="1.0" ?><svg viewBox="0 0 48 48" xmlns="http://www.w3.org/2000/svg" xmlns:xlink="http://www.w3.org/1999/xlink"><defs><style>.cls-1{fill:url(#linear-gradient);}.cls-2{fill:#fff;}</style><linearGradient gradientUnits="userSpaceOnUse" id="linear-gradient" x1="24.67" x2="24.67" y1="11.87" y2="38.2"><stop offset="0" stop-color="#66bcef"/><stop offset="1" stop-color="#4096c9"/></linearGradient></defs><title/><g id="icons"><g data-name="Layer 3" id="Layer_3"><path class="cls-1" d="M37.32,8.33h-9a2.87,2.87,0,0,0-2,.84L9.85,25.56a2.86,2.86,0,0,0,0,4.05l9.21,9.22a2.86,2.86,0,0,0,4.05,0L39.49,22.45a2.89,2.89,0,0,0,.83-2.06l-.13-9.24A2.87,2.87,0,0,0,37.32,8.33ZM35,15.84A2,2,0,1,1,37,13.79,2,2,0,0,1,35,15.84Z"/><rect class="cls-2" height="2" transform="translate(-9.37 22.54) rotate(-45)" width="12" x="16.52" y="21.59"/><rect class="cls-2" height="2" transform="translate(-11.96 24.78) rotate(-45)" width="8" x="19.93" y="25.83"/></g></g></svg>